<svg xmlns="http://www.w3.org/2000/svg" viewBox="0 0 512 512" role="img" aria-label="GeoGallery icon">
  <defs>
    <linearGradient id="bg" x1="0" y1="0" x2="1" y2="1">
      <stop offset="0%" stop-color="#1d4ed8"/>
      <stop offset="100%" stop-color="#0ea5e9"/>
    </linearGradient>
  </defs>
  <rect width="512" height="512" rx="120" fill="url(#bg)"/>
  <path d="M96 340l98-112 68 74 52-60 102 98H96z" fill="#ffffff" fill-opacity="0.92"/>
  <circle cx="180" cy="164" r="34" fill="#ffffff" fill-opacity="0.88"/>
  <path d="M256 110c-44 0-80 35-80 79 0 56 80 142 80 142s80-86 80-142c0-44-36-79-80-79zm0 112a33 33 0 1 1 0-66 33 33 0 0 1 0 66z" fill="#f8fafc"/>
</svg>
